<?xml version="1.0" encoding="UTF-8" standalone="no"?> <!-- Created with Vectornator for iOS (http://vectornator.io/) --><!DOCTYPE svg PUBLIC "-//W3C//DTD SVG 1.1//EN" "http://www.w3.org/Graphics/SVG/1.1/DTD/svg11.dtd">
<svg xml:space="preserve" width="100%" viewBox="0 0 740.135 126.729" version="1.1" xmlns="http://www.w3.org/2000/svg" style="fill-rule:nonzero;clip-rule:evenodd;stroke-linecap:round;stroke-linejoin:round;" xmlns:xlink="http://www.w3.org/1999/xlink" height="100%" xmlns:vectornator="http://vectornator.io">
<metadata>
<vectornator:setting key="WDCMYKEnabledKey" value="false"/>
<vectornator:setting key="VNDimensionsVisible" value="true"/>
<vectornator:setting key="WDIsolateActiveLayer" value="false"/>
<vectornator:setting value="false" key="WDDisplayWhiteBackground"/>
<vectornator:setting value="false" key="IsTimeLapseWatermarkDisabled"/>
<vectornator:setting value="false" key="WDSnapToPoints"/>
<vectornator:setting key="VNSnapToGuides" value="true"/>
<vectornator:setting key="WDRulersVisible" value="true"/>
<vectornator:setting key="WDSnapToGrid" value="false"/>
<vectornator:setting key="WDDynamicGuides" value="false"/>
<vectornator:setting key="WDOutlineMode" value="false"/>
<vectornator:setting value="true" key="UndoHistoryDisabled"/>
<vectornator:setting key="WDUnits" value="Pixels"/>
<vectornator:setting value="true" key="WDGuidesVisible"/>
<vectornator:setting value="false" key="WDSnapToEdges"/>
</metadata>
<defs>
<filter x="0" height="342.57" filterUnits="userSpaceOnUse" color-interpolation-filters="sRGB" y="0" width="2181.31" id="0F8E614C-F492-40D5-A6BA-276B0C60D580">
<feDropShadow flood-color="#141414" dx="1.75197" stdDeviation="1.46733" width="2181.31" height="342.57" dy="2.08053"/>
</filter>
<filter y="0" id="2BDE8AD3-A498-4E89-AB2F-77DCEB7857DE" color-interpolation-filters="sRGB" height="137.74" filterUnits="userSpaceOnUse" width="116.005" x="92.8726">
<feDropShadow dx="1.75197" flood-color="#141414" stdDeviation="1.46733" width="116.005" dy="2.08053" height="137.74"/>
</filter>
<filter height="137.74" x="140.759" color-interpolation-filters="sRGB" filterUnits="userSpaceOnUse" id="1FAC1A6E-13EA-4DBF-832B-4318118D2BB3" width="108.047" y="0">
<feDropShadow width="108.047" dy="2.08053" stdDeviation="1.46733" height="137.74" flood-color="#141414" dx="1.75197"/>
</filter>
<filter y="0" height="138.71" id="FD27BFD9-F75F-453F-821F-7E4A683BF1F6" width="118.698" x="175.686" color-interpolation-filters="sRGB" filterUnits="userSpaceOnUse">
<feDropShadow stdDeviation="1.46733" dy="2.08053" width="118.698" height="138.71" dx="1.75197" flood-color="#141414"/>
</filter>
<filter filterUnits="userSpaceOnUse" width="176.863" x="197.075" height="138.307" color-interpolation-filters="sRGB" id="40241851-7C03-4AEB-A295-2F8E60CF47B4" y="0">
<feDropShadow flood-color="#141414" dy="2.08053" dx="1.75197" stdDeviation="1.46733" width="176.863" height="138.307"/>
</filter>
<filter color-interpolation-filters="sRGB" filterUnits="userSpaceOnUse" width="110.335" id="4524EB5B-6492-4F92-B289-4538422B8B60" x="283.574" y="0" height="137.74">
<feDropShadow dy="2.08053" dx="1.75197" flood-color="#141414" height="137.74" stdDeviation="1.46733" width="110.335"/>
</filter>
<filter filterUnits="userSpaceOnUse" color-interpolation-filters="sRGB" y="0" x="343.991" width="108.634" id="CA24564B-335F-416C-BA74-A714011A360A" height="137.74">
<feDropShadow flood-color="#141414" dx="1.75197" width="108.634" dy="2.08053" height="137.74" stdDeviation="1.46733"/>
</filter>
<filter filterUnits="userSpaceOnUse" id="24AE7BAD-3FA3-49BF-8AC7-BEA71A81238B" y="0" x="375.176" width="132.826" height="141.52" color-interpolation-filters="sRGB">
<feDropShadow stdDeviation="1.46733" dy="2.08053" width="132.826" height="141.52" flood-color="#141414" dx="1.75197"/>
</filter>
<filter id="8E95D0DC-BB00-4003-8C3B-F6E946ED8185" x="428.285" height="141.52" y="0" width="117.895" color-interpolation-filters="sRGB" filterUnits="userSpaceOnUse">
<feDropShadow dx="1.75197" stdDeviation="1.46733" height="141.52" flood-color="#141414" dy="2.08053" width="117.895"/>
</filter>
<filter filterUnits="userSpaceOnUse" width="88.0329" color-interpolation-filters="sRGB" height="137.74" y="0" id="9FFB7C74-6789-4200-AE80-A1BCBF7203CF" x="484.733">
<feDropShadow dx="1.75197" width="88.0329" flood-color="#141414" dy="2.08053" height="137.74" stdDeviation="1.46733"/>
</filter>
<filter width="108.634" filterUnits="userSpaceOnUse" height="137.74" color-interpolation-filters="sRGB" y="0" x="510.311" id="6BCAC29E-A084-4AE1-9B5A-5CEBC95F139A">
<feDropShadow flood-color="#141414" dy="2.08053" width="108.634" dx="1.75197" stdDeviation="1.46733" height="137.74"/>
</filter>
<filter id="CB5D1332-0774-4FCE-870C-4588F8312DF8" filterUnits="userSpaceOnUse" width="108.256" height="137.74" x="552.395" color-interpolation-filters="sRGB" y="0">
<feDropShadow dy="2.08053" width="108.256" height="137.74" flood-color="#141414" dx="1.75197" stdDeviation="1.46733"/>
</filter>
<filter height="137.74" y="0" filterUnits="userSpaceOnUse" id="D7655E7D-0AA0-4675-96F7-5AEA48FC4284" x="604.496" width="88.0329" color-interpolation-filters="sRGB">
<feDropShadow dx="1.75197" width="88.0329" height="137.74" dy="2.08053" flood-color="#141414" stdDeviation="1.46733"/>
</filter>
<filter y="0" width="108.047" height="137.74" x="633.734" filterUnits="userSpaceOnUse" color-interpolation-filters="sRGB" id="B4BE2E72-BFC7-418D-A042-6DF58C4D74D8">
<feDropShadow height="137.74" width="108.047" flood-color="#141414" stdDeviation="1.46733" dy="2.08053" dx="1.75197"/>
</filter>
<radialGradient r="15.652" cy="105.354" gradientUnits="userSpaceOnUse" cx="143.17" gradientTransform="matrix(0.529857 0 0 0.519715 -38.6766 17.8473)" id="RadialGradient">
<stop stop-color="#8dadb2" offset="0"/>
<stop stop-color="#688d9a" offset="0.60315"/>
<stop stop-color="#56809b" offset="1"/>
</radialGradient>
<radialGradient cy="138.449" gradientTransform="matrix(0.529857 0 0 0.519715 45.6408 -4.92534)" id="RadialGradient_2" cx="89.3412" r="13.2204" gradientUnits="userSpaceOnUse">
<stop stop-color="#b2c4a4" offset="0"/>
<stop stop-color="#8fad7e" offset="0.468644"/>
<stop stop-color="#889b56" offset="1"/>
</radialGradient>
<radialGradient gradientUnits="userSpaceOnUse" id="RadialGradient_3" gradientTransform="matrix(0.529857 0 0 0.519715 49.4595 -16.7033)" cx="37.6212" cy="110.483" r="6.71301">
<stop stop-color="#e5a2a2" offset="0"/>
<stop offset="0.380291" stop-color="#d97777"/>
<stop offset="1" stop-color="#d94747"/>
</radialGradient>
<radialGradient r="21.5599" gradientUnits="userSpaceOnUse" gradientTransform="matrix(0.529857 0 0 0.519715 10.1619 -3.55676)" cx="64.9757" cy="66.1881" id="RadialGradient_4">
<stop offset="0" stop-color="#b28d8d"/>
<stop offset="0.358881" stop-color="#a07979"/>
<stop offset="1" stop-color="#9b5656"/>
</radialGradient>
<radialGradient cy="119.491" cx="38.0844" id="RadialGradient_5" gradientUnits="userSpaceOnUse" gradientTransform="matrix(0.529857 0 0 0.519715 64.5045 33.7637)" r="8.75107">
<stop offset="0" stop-color="#bd6ea2"/>
<stop stop-color="#8c3a70" offset="0.717233"/>
<stop stop-color="#751d57" offset="1"/>
</radialGradient>
</defs>
<g vectornator:layerName="Layer 2" id="Layer 2">
<g opacity="1">
<path filter="url(#0F8E614C-F492-40D5-A6BA-276B0C60D580)" vectornator:shadowOpacity="1" d="M26.3771+5.17274L710.217+5.17274C721.663+5.17274+730.942+12.0353+730.942+20.5006L730.942+102.221C730.942+110.687+721.663+117.549+710.217+117.549L26.3771+117.549C14.9307+117.549+5.65151+110.687+5.65151+102.221L5.65151+20.5006C5.65151+12.0353+14.9307+5.17274+26.3771+5.17274Z" opacity="1" vectornator:shadowOffset="2.71993" fill="#454545" vectornator:shadowColor="#141414" vectornator:shadowRadius="4.89111" vectornator:shadowAngle="0.87092"/>
<g opacity="1">
<path vectornator:shadowOffset="2.71993" vectornator:shadowColor="#141414" opacity="1" d="M150.718+39.6864C153.784+39.6864+156.482+40.2639+158.813+41.4189C161.144+42.5739+163.087+44.1804+164.641+46.2384C166.195+48.2964+167.36+50.6589+168.137+53.3259C168.914+55.9929+169.303+58.7964+169.303+61.7364C169.303+65.7684+168.61+69.4539+167.224+72.7929C165.838+76.1319+163.78+78.7989+161.05+80.7939C158.32+82.7889+154.876+83.7864+150.718+83.7864L134.968+83.7864C134.254+83.7864+133.655+83.5344+133.172+83.0304C132.689+82.5264+132.448+81.9174+132.448+81.2034L132.448+42.2064C132.448+41.4924+132.689+40.8939+133.172+40.4109C133.655+39.9279+134.254+39.6864+134.968+39.6864L150.718+39.6864ZM150.088+78.8724C153.322+78.8724+155.957+78.0954+157.994+76.5414C160.031+74.9874+161.522+72.9084+162.467+70.3044C163.412+67.7004+163.885+64.8444+163.885+61.7364C163.885+59.4684+163.622+57.2949+163.097+55.2159C162.572+53.1369+161.753+51.2994+160.64+49.7034C159.527+48.1074+158.099+46.8474+156.356+45.9234C154.613+44.9994+152.524+44.5374+150.088+44.5374L137.173+44.5374L137.677+44.0334L137.677+79.5024L137.299+78.8724L150.088+78.8724Z" vectornator:shadowRadius="4.89111" vectornator:shadowAngle="0.87092" filter="url(#2BDE8AD3-A498-4E89-AB2F-77DCEB7857DE)" vectornator:shadowOpacity="1" fill="#d5d0c8"/>
<path vectornator:shadowRadius="4.89111" vectornator:shadowOffset="2.71993" opacity="1" vectornator:shadowAngle="0.87092" vectornator:shadowColor="#141414" vectornator:shadowOpacity="1" fill="#d5d0c8" d="M180.58+83.7864C179.782+83.7864+179.099+83.5344+178.532+83.0304C177.965+82.5264+177.682+81.9174+177.682+81.2034L177.682+42.2064C177.682+41.4924+177.923+40.8939+178.406+40.4109C178.889+39.9279+179.488+39.6864+180.202+39.6864L197.59+39.6864C199.942+39.6864+202.063+40.2219+203.953+41.2929C205.843+42.3639+207.344+43.8339+208.457+45.7029C209.57+47.5719+210.127+49.7244+210.127+52.1604C210.127+53.9244+209.791+55.5729+209.119+57.1059C208.447+58.6389+207.523+59.9619+206.347+61.0749C205.171+62.1879+203.827+63.0384+202.315+63.6264L200.929+62.6184C202.357+62.9544+203.638+63.5529+204.772+64.4139C205.906+65.2749+206.83+66.3669+207.544+67.6899C208.258+69.0129+208.636+70.5564+208.678+72.3204C208.762+73.8744+208.867+75.1134+208.993+76.0374C209.119+76.9614+209.308+77.6859+209.56+78.2109C209.812+78.7359+210.169+79.1454+210.631+79.4394C211.219+79.8174+211.607+80.3214+211.796+80.9514C211.985+81.5814+211.87+82.1904+211.45+82.7784C211.198+83.1564+210.841+83.4189+210.379+83.5659C209.917+83.7129+209.455+83.7654+208.993+83.7234C208.531+83.6814+208.132+83.5554+207.796+83.3454C207.124+82.9674+206.473+82.4109+205.843+81.6759C205.213+80.9409+204.688+79.8804+204.268+78.4944C203.848+77.1084+203.638+75.2184+203.638+72.8244C203.638+71.4804+203.428+70.3674+203.008+69.4854C202.588+68.6034+202.021+67.8894+201.307+67.3434C200.593+66.7974+199.795+66.4194+198.913+66.2094C198.031+65.9994+197.128+65.8944+196.204+65.8944L182.155+65.8944L182.911+64.7604L182.911+81.2034C182.911+81.9174+182.701+82.5264+182.281+83.0304C181.861+83.5344+181.294+83.7864+180.58+83.7864ZM182.155+61.3584L197.59+61.3584C198.808+61.2744+199.952+60.8544+201.023+60.0984C202.094+59.3424+202.976+58.2819+203.669+56.9169C204.362+55.5519+204.709+54.0084+204.709+52.2864C204.709+50.0604+204.005+48.2124+202.598+46.7424C201.191+45.2724+199.417+44.5374+197.275+44.5374L182.407+44.5374L182.911+43.3404L182.911+62.4924L182.155+61.3584Z" filter="url(#1FAC1A6E-13EA-4DBF-832B-4318118D2BB3)"/>
<path vectornator:shadowRadius="4.89111" vectornator:shadowColor="#141414" vectornator:shadowOffset="2.71993" d="M235.516+46.2384L220.711+82.2744C220.543+82.7784+220.249+83.1774+219.829+83.4714C219.409+83.7654+218.968+83.9124+218.506+83.9124C217.708+83.9124+217.12+83.7024+216.742+83.2824C216.364+82.8624+216.175+82.3584+216.175+81.7704C216.133+81.4764+216.175+81.1614+216.301+80.8254L232.618+41.1354C232.828+40.5474+233.153+40.1169+233.594+39.8439C234.035+39.5709+234.529+39.4554+235.075+39.4974C235.621+39.4974+236.114+39.6444+236.555+39.9384C236.996+40.2324+237.301+40.6314+237.469+41.1354L253.723+80.4474C253.849+80.7834+253.912+81.1194+253.912+81.4554C253.912+82.2114+253.66+82.8099+253.156+83.2509C252.652+83.6919+252.085+83.9124+251.455+83.9124C250.951+83.9124+250.489+83.7654+250.069+83.4714C249.649+83.1774+249.334+82.7574+249.124+82.2114L234.13+46.1754L235.516+46.2384ZM223.861+72.0054L226.003+67.0914L244.714+67.0914L245.659+72.0054L223.861+72.0054Z" fill="#d5d0c8" opacity="1" vectornator:shadowOpacity="1" filter="url(#FD27BFD9-F75F-453F-821F-7E4A683BF1F6)" vectornator:shadowAngle="0.87092"/>
<path opacity="1" vectornator:shadowAngle="0.87092" vectornator:shadowOffset="2.71993" vectornator:shadowRadius="4.89111" vectornator:shadowOpacity="1" d="M311.368+39.4974C312.04+39.4974+312.659+39.7284+313.226+40.1904C313.793+40.6524+314.077+41.3034+314.077+42.1434C314.077+42.4374+314.035+42.7524+313.951+43.0884L300.532+82.1484C300.364+82.6524+300.059+83.0409+299.618+83.3139C299.177+83.5869+298.726+83.7444+298.264+83.7864C297.76+83.7864+297.277+83.6499+296.815+83.3769C296.353+83.1039+295.996+82.6944+295.744+82.1484L285.223+56.6964L285.727+56.8854L275.269+82.1484C275.017+82.6944+274.66+83.1039+274.198+83.3769C273.736+83.6499+273.253+83.7864+272.749+83.7864C272.287+83.7444+271.835+83.5869+271.394+83.3139C270.953+83.0409+270.649+82.6524+270.481+82.1484L257.062+43.0884C256.978+42.7524+256.936+42.4584+256.936+42.2064C256.936+41.3664+257.24+40.7049+257.849+40.2219C258.458+39.7389+259.078+39.4974+259.708+39.4974C260.212+39.4974+260.695+39.6444+261.157+39.9384C261.619+40.2324+261.934+40.6314+262.102+41.1354L273.883+75.9114L273.001+75.9114L283.27+50.5224C283.48+50.0184+283.795+49.6194+284.215+49.3254C284.635+49.0314+285.118+48.8844+285.664+48.8844C286.168+48.8844+286.64+49.0314+287.081+49.3254C287.522+49.6194+287.827+50.0184+287.995+50.5224L297.949+75.5334L297.193+75.8484L308.911+41.1354C309.079+40.6314+309.394+40.2324+309.856+39.9384C310.318+39.6444+310.822+39.4974+311.368+39.4974Z" fill="#d5d0c8" filter="url(#40241851-7C03-4AEB-A295-2F8E60CF47B4)" vectornator:shadowColor="#141414"/>
<path opacity="1" d="M353.893+39.6864C354.607+39.6864+355.174+39.9069+355.594+40.3479C356.014+40.7889+356.224+41.3454+356.224+42.0174L356.224+81.1404C356.224+81.9384+355.972+82.5789+355.468+83.0619C354.964+83.5449+354.355+83.7864+353.641+83.7864C353.263+83.7864+352.885+83.7129+352.507+83.5659C352.129+83.4189+351.835+83.2194+351.625+82.9674L324.661+47.3094L325.921+46.5534L325.921+81.4554C325.921+82.1274+325.7+82.6839+325.259+83.1249C324.818+83.5659+324.241+83.7864+323.527+83.7864C322.855+83.7864+322.309+83.5659+321.889+83.1249C321.469+82.6839+321.259+82.1274+321.259+81.4554L321.259+42.2064C321.259+41.4504+321.5+40.8414+321.983+40.3794C322.466+39.9174+323.044+39.6864+323.716+39.6864C324.094+39.6864+324.482+39.7599+324.881+39.9069C325.28+40.0539+325.585+40.2744+325.795+40.5684L352.381+75.7224L351.562+76.7304L351.562+42.0174C351.562+41.3454+351.782+40.7889+352.223+40.3479C352.664+39.9069+353.221+39.6864+353.893+39.6864Z" filter="url(#4524EB5B-6492-4F92-B289-4538422B8B60)" vectornator:shadowColor="#141414" fill="#d5d0c8" vectornator:shadowOpacity="1" vectornator:shadowRadius="4.89111" vectornator:shadowAngle="0.87092" vectornator:shadowOffset="2.71993"/>
<path fill="#d5d0c8" vectornator:shadowAngle="0.87092" filter="url(#CA24564B-335F-416C-BA74-A714011A360A)" vectornator:shadowRadius="4.89111" opacity="1" vectornator:shadowOffset="2.71993" vectornator:shadowColor="#141414" d="M398.245+83.7864C397.489+83.7864+396.859+83.5344+396.355+83.0304C395.851+82.5264+395.599+81.9174+395.599+81.2034L395.599+42.2694L400.954+42.2694L400.954+81.2034C400.954+81.9174+400.702+82.5264+400.198+83.0304C399.694+83.5344+399.043+83.7864+398.245+83.7864ZM383.629+44.4744C382.915+44.4744+382.316+44.2539+381.833+43.8129C381.35+43.3719+381.109+42.7944+381.109+42.0804C381.109+41.3664+381.35+40.7889+381.833+40.3479C382.316+39.9069+382.915+39.6864+383.629+39.6864L412.924+39.6864C413.638+39.6864+414.247+39.9069+414.751+40.3479C415.255+40.7889+415.507+41.3664+415.507+42.0804C415.507+42.8364+415.255+43.4244+414.751+43.8444C414.247+44.2644+413.638+44.4744+412.924+44.4744L383.629+44.4744Z" vectornator:shadowOpacity="1"/>
<path vectornator:shadowColor="#141414" vectornator:shadowOffset="2.71993" filter="url(#24AE7BAD-3FA3-49BF-8AC7-BEA71A81238B)" vectornator:shadowOpacity="1" vectornator:shadowAngle="0.87092" opacity="1" d="M462.82+61.7364C462.82+64.9704+462.295+67.9629+461.245+70.7139C460.195+73.4649+458.725+75.8694+456.835+77.9274C454.945+79.9854+452.698+81.5814+450.094+82.7154C447.49+83.8494+444.655+84.4164+441.589+84.4164C438.481+84.4164+435.635+83.8494+433.052+82.7154C430.469+81.5814+428.233+79.9854+426.343+77.9274C424.453+75.8694+422.983+73.4649+421.933+70.7139C420.883+67.9629+420.358+64.9704+420.358+61.7364C420.358+58.4604+420.883+55.4469+421.933+52.6959C422.983+49.9449+424.453+47.5509+426.343+45.5139C428.233+43.4769+430.469+41.8914+433.052+40.7574C435.635+39.6234+438.481+39.0564+441.589+39.0564C444.655+39.0564+447.49+39.6234+450.094+40.7574C452.698+41.8914+454.945+43.4769+456.835+45.5139C458.725+47.5509+460.195+49.9449+461.245+52.6959C462.295+55.4469+462.82+58.4604+462.82+61.7364ZM457.402+61.7364C457.402+58.2924+456.719+55.2474+455.354+52.6014C453.989+49.9554+452.131+47.8764+449.779+46.3644C447.427+44.8524+444.697+44.0964+441.589+44.0964C438.481+44.0964+435.74+44.8524+433.367+46.3644C430.994+47.8764+429.136+49.9554+427.792+52.6014C426.448+55.2474+425.776+58.2924+425.776+61.7364C425.776+65.1384+426.448+68.1729+427.792+70.8399C429.136+73.5069+430.994+75.5964+433.367+77.1084C435.74+78.6204+438.481+79.3764+441.589+79.3764C444.697+79.3764+447.427+78.6204+449.779+77.1084C452.131+75.5964+453.989+73.5069+455.354+70.8399C456.719+68.1729+457.402+65.1384+457.402+61.7364Z" fill="#d5d0c8" vectornator:shadowRadius="4.89111"/>
<path filter="url(#8E95D0DC-BB00-4003-8C3B-F6E946ED8185)" opacity="1" vectornator:shadowRadius="4.89111" d="M491.296+84.4164C488.062+84.4164+485.069+83.8389+482.318+82.6839C479.567+81.5289+477.152+79.9224+475.073+77.8644C472.994+75.8064+471.377+73.4019+470.222+70.6509C469.067+67.8999+468.49+64.9284+468.49+61.7364C468.49+58.5024+469.067+55.5099+470.222+52.7589C471.377+50.0079+472.994+47.6034+475.073+45.5454C477.152+43.4874+479.567+41.8914+482.318+40.7574C485.069+39.6234+488.062+39.0564+491.296+39.0564C493.438+39.0564+495.506+39.2979+497.501+39.7809C499.496+40.2639+501.313+41.0094+502.951+42.0174C503.371+42.2274+503.675+42.5214+503.864+42.8994C504.053+43.2774+504.148+43.6764+504.148+44.0964C504.148+44.8104+503.906+45.4194+503.423+45.9234C502.94+46.4274+502.384+46.6794+501.754+46.6794C501.502+46.6794+501.26+46.6374+501.029+46.5534C500.798+46.4694+500.557+46.3854+500.305+46.3014C499.003+45.6294+497.596+45.0939+496.084+44.6949C494.572+44.2959+492.976+44.0964+491.296+44.0964C487.978+44.0964+485.006+44.8734+482.381+46.4274C479.756+47.9814+477.688+50.0814+476.176+52.7274C474.664+55.3734+473.908+58.3764+473.908+61.7364C473.908+65.0544+474.664+68.0469+476.176+70.7139C477.688+73.3809+479.756+75.4914+482.381+77.0454C485.006+78.5994+487.978+79.3764+491.296+79.3764C492.976+79.3764+494.708+79.1454+496.493+78.6834C498.278+78.2214+499.801+77.6334+501.061+76.9194L500.62+78.4314L500.62+65.1384L501.628+66.0204L491.989+66.0204C491.275+66.0204+490.676+65.7789+490.193+65.2959C489.71+64.8129+489.469+64.2144+489.469+63.5004C489.469+62.7864+489.71+62.1879+490.193+61.7049C490.676+61.2219+491.275+60.9804+491.989+60.9804L503.455+60.9804C504.211+60.9804+504.82+61.2324+505.282+61.7364C505.744+62.2404+505.975+62.8494+505.975+63.5634L505.975+78.1164C505.975+78.6204+505.859+79.0614+505.628+79.4394C505.397+79.8174+505.093+80.1324+504.715+80.3844C502.825+81.6024+500.735+82.5789+498.446+83.3139C496.157+84.0489+493.774+84.4164+491.296+84.4164Z" vectornator:shadowOpacity="1" fill="#d5d0c8" vectornator:shadowAngle="0.87092" vectornator:shadowColor="#141414" vectornator:shadowOffset="2.71993"/>
<path vectornator:shadowColor="#141414" filter="url(#9FFB7C74-6789-4200-AE80-A1BCBF7203CF)" vectornator:shadowRadius="4.89111" vectornator:shadowOpacity="1" vectornator:shadowAngle="0.87092" fill="#d5d0c8" vectornator:shadowOffset="2.71993" opacity="1" d="M517.504+39.6864L539.932+39.6864C540.646+39.6864+541.255+39.9174+541.759+40.3794C542.263+40.8414+542.515+41.4294+542.515+42.1434C542.515+42.8574+542.263+43.4349+541.759+43.8759C541.255+44.3169+540.646+44.5374+539.932+44.5374L519.646+44.5374L520.213+43.4664L520.213+59.4054L519.583+58.7124L537.097+58.7124C537.811+58.7124+538.42+58.9434+538.924+59.4054C539.428+59.8674+539.68+60.4554+539.68+61.1694C539.68+61.8834+539.428+62.4609+538.924+62.9019C538.42+63.3429+537.811+63.5634+537.097+63.5634L519.772+63.5634L520.213+62.9964L520.213+79.3134L519.835+78.8724L539.932+78.8724C540.646+78.8724+541.255+79.1244+541.759+79.6284C542.263+80.1324+542.515+80.6994+542.515+81.3294C542.515+82.0434+542.263+82.6314+541.759+83.0934C541.255+83.5554+540.646+83.7864+539.932+83.7864L517.504+83.7864C516.79+83.7864+516.191+83.5344+515.708+83.0304C515.225+82.5264+514.984+81.9174+514.984+81.2034L514.984+42.2064C514.984+41.4924+515.225+40.8939+515.708+40.4109C516.191+39.9279+516.79+39.6864+517.504+39.6864Z"/>
<path d="M564.565+83.7864C563.809+83.7864+563.179+83.5344+562.675+83.0304C562.171+82.5264+561.919+81.9174+561.919+81.2034L561.919+42.2694L567.274+42.2694L567.274+81.2034C567.274+81.9174+567.022+82.5264+566.518+83.0304C566.014+83.5344+565.363+83.7864+564.565+83.7864ZM549.949+44.4744C549.235+44.4744+548.636+44.2539+548.153+43.8129C547.67+43.3719+547.429+42.7944+547.429+42.0804C547.429+41.3664+547.67+40.7889+548.153+40.3479C548.636+39.9069+549.235+39.6864+549.949+39.6864L579.244+39.6864C579.958+39.6864+580.567+39.9069+581.071+40.3479C581.575+40.7889+581.827+41.3664+581.827+42.0804C581.827+42.8364+581.575+43.4244+581.071+43.8444C580.567+44.2644+579.958+44.4744+579.244+44.4744L549.949+44.4744Z" vectornator:shadowAngle="0.87092" filter="url(#6BCAC29E-A084-4AE1-9B5A-5CEBC95F139A)" opacity="1" vectornator:shadowOpacity="1" vectornator:shadowRadius="4.89111" vectornator:shadowColor="#141414" vectornator:shadowOffset="2.71993" fill="#d5d0c8"/>
<path filter="url(#CB5D1332-0774-4FCE-870C-4588F8312DF8)" vectornator:shadowOpacity="1" d="M592.033+39.6864C592.747+39.6864+593.356+39.9279+593.86+40.4109C594.364+40.8939+594.616+41.5134+594.616+42.2694L594.616+81.2034C594.616+81.9174+594.353+82.5264+593.828+83.0304C593.303+83.5344+592.684+83.7864+591.97+83.7864C591.172+83.7864+590.542+83.5344+590.08+83.0304C589.618+82.5264+589.387+81.9174+589.387+81.2034L589.387+42.2694C589.387+41.5134+589.639+40.8939+590.143+40.4109C590.647+39.9279+591.277+39.6864+592.033+39.6864ZM621.076+39.6864C621.832+39.6864+622.451+39.9279+622.934+40.4109C623.417+40.8939+623.659+41.5134+623.659+42.2694L623.659+81.2034C623.659+81.9174+623.407+82.5264+622.903+83.0304C622.399+83.5344+621.769+83.7864+621.013+83.7864C620.299+83.7864+619.69+83.5344+619.186+83.0304C618.682+82.5264+618.43+81.9174+618.43+81.2034L618.43+42.2694C618.43+41.5134+618.692+40.8939+619.217+40.4109C619.742+39.9279+620.362+39.6864+621.076+39.6864ZM591.781+58.9014L621.139+58.9014L621.076+63.8154L591.592+63.8154L591.781+58.9014Z" vectornator:shadowColor="#141414" vectornator:shadowOffset="2.71993" opacity="1" vectornator:shadowRadius="4.89111" vectornator:shadowAngle="0.87092" fill="#d5d0c8"/>
<path d="M637.267+39.6864L659.695+39.6864C660.409+39.6864+661.018+39.9174+661.522+40.3794C662.026+40.8414+662.278+41.4294+662.278+42.1434C662.278+42.8574+662.026+43.4349+661.522+43.8759C661.018+44.3169+660.409+44.5374+659.695+44.5374L639.409+44.5374L639.976+43.4664L639.976+59.4054L639.346+58.7124L656.86+58.7124C657.574+58.7124+658.183+58.9434+658.687+59.4054C659.191+59.8674+659.443+60.4554+659.443+61.1694C659.443+61.8834+659.191+62.4609+658.687+62.9019C658.183+63.3429+657.574+63.5634+656.86+63.5634L639.535+63.5634L639.976+62.9964L639.976+79.3134L639.598+78.8724L659.695+78.8724C660.409+78.8724+661.018+79.1244+661.522+79.6284C662.026+80.1324+662.278+80.6994+662.278+81.3294C662.278+82.0434+662.026+82.6314+661.522+83.0934C661.018+83.5554+660.409+83.7864+659.695+83.7864L637.267+83.7864C636.553+83.7864+635.954+83.5344+635.471+83.0304C634.988+82.5264+634.747+81.9174+634.747+81.2034L634.747+42.2064C634.747+41.4924+634.988+40.8939+635.471+40.4109C635.954+39.9279+636.553+39.6864+637.267+39.6864Z" vectornator:shadowOffset="2.71993" fill="#d5d0c8" filter="url(#D7655E7D-0AA0-4675-96F7-5AEA48FC4284)" vectornator:shadowColor="#141414" vectornator:shadowRadius="4.89111" vectornator:shadowOpacity="1" vectornator:shadowAngle="0.87092" opacity="1"/>
<path fill="#d5d0c8" vectornator:shadowRadius="4.89111" opacity="1" vectornator:shadowColor="#141414" vectornator:shadowAngle="0.87092" d="M673.555+83.7864C672.757+83.7864+672.074+83.5344+671.507+83.0304C670.94+82.5264+670.657+81.9174+670.657+81.2034L670.657+42.2064C670.657+41.4924+670.898+40.8939+671.381+40.4109C671.864+39.9279+672.463+39.6864+673.177+39.6864L690.565+39.6864C692.917+39.6864+695.038+40.2219+696.928+41.2929C698.818+42.3639+700.319+43.8339+701.432+45.7029C702.545+47.5719+703.102+49.7244+703.102+52.1604C703.102+53.9244+702.766+55.5729+702.094+57.1059C701.422+58.6389+700.498+59.9619+699.322+61.0749C698.146+62.1879+696.802+63.0384+695.29+63.6264L693.904+62.6184C695.332+62.9544+696.613+63.5529+697.747+64.4139C698.881+65.2749+699.805+66.3669+700.519+67.6899C701.233+69.0129+701.611+70.5564+701.653+72.3204C701.737+73.8744+701.842+75.1134+701.968+76.0374C702.094+76.9614+702.283+77.6859+702.535+78.2109C702.787+78.7359+703.144+79.1454+703.606+79.4394C704.194+79.8174+704.582+80.3214+704.771+80.9514C704.96+81.5814+704.845+82.1904+704.425+82.7784C704.173+83.1564+703.816+83.4189+703.354+83.5659C702.892+83.7129+702.43+83.7654+701.968+83.7234C701.506+83.6814+701.107+83.5554+700.771+83.3454C700.099+82.9674+699.448+82.4109+698.818+81.6759C698.188+80.9409+697.663+79.8804+697.243+78.4944C696.823+77.1084+696.613+75.2184+696.613+72.8244C696.613+71.4804+696.403+70.3674+695.983+69.4854C695.563+68.6034+694.996+67.8894+694.282+67.3434C693.568+66.7974+692.77+66.4194+691.888+66.2094C691.006+65.9994+690.103+65.8944+689.179+65.8944L675.13+65.8944L675.886+64.7604L675.886+81.2034C675.886+81.9174+675.676+82.5264+675.256+83.0304C674.836+83.5344+674.269+83.7864+673.555+83.7864ZM675.13+61.3584L690.565+61.3584C691.783+61.2744+692.927+60.8544+693.998+60.0984C695.069+59.3424+695.951+58.2819+696.644+56.9169C697.337+55.5519+697.684+54.0084+697.684+52.2864C697.684+50.0604+696.98+48.2124+695.573+46.7424C694.166+45.2724+692.392+44.5374+690.25+44.5374L675.382+44.5374L675.886+43.3404L675.886+62.4924L675.13+61.3584Z" vectornator:shadowOffset="2.71993" filter="url(#B4BE2E72-BFC7-418D-A042-6DF58C4D74D8)" vectornator:shadowOpacity="1"/>
</g>
<g opacity="1">
<path d="M28.8895+72.6014C28.8895+68.1499+32.6025+64.5413+37.1828+64.5413C41.7631+64.5413+45.4762+68.1499+45.4762+72.6014C45.4762+77.0529+41.7631+80.6615+37.1828+80.6615C32.6025+80.6615+28.8895+77.0529+28.8895+72.6014Z" opacity="1" fill="url(#RadialGradient)"/>
<path d="M85.9739+67.0286C85.9739+63.2339+89.1101+60.1577+92.9789+60.1577C96.8476+60.1577+99.9838+63.2339+99.9838+67.0286C99.9838+70.8232+96.8476+73.8994+92.9789+73.8994C89.1101+73.8994+85.9739+70.8232+85.9739+67.0286Z" fill="url(#RadialGradient_2)" opacity="1"/>
<path opacity="1" fill="url(#RadialGradient_3)" d="M65.8365+40.7164C65.8365+38.7896+67.429+37.2276+69.3934+37.2276C71.3578+37.2276+72.9503+38.7896+72.9503+40.7164C72.9503+42.6433+71.3578+44.2053+69.3934+44.2053C67.429+44.2053+65.8365+42.6433+65.8365+40.7164Z"/>
<g opacity="1">
<path opacity="1" stroke-width="2.51604" stroke="#86689a" stroke-linecap="round" stroke-linejoin="round" fill="none" d="M79.2127+25.8889C79.2127+22.7059+81.9102+20.1256+85.2377+20.1256C88.5652+20.1256+91.2627+22.7059+91.2627+25.8889C91.2627+29.0719+88.5652+31.6522+85.2377+31.6522C81.9102+31.6522+79.2127+29.0719+79.2127+25.8889Z"/>
<path d="M68.804+58.4577L85.0445+26.1736" stroke-width="1.03243" stroke-dasharray="3.0,3.0,1.0,4.0" fill="none" opacity="1" stroke-linecap="round" stroke-linejoin="round" stroke="#cdc5c5"/>
</g>
<g opacity="1">
<path stroke-linejoin="round" opacity="1" fill="url(#RadialGradient_4)" stroke-width="1" d="M33.1661+30.8422C33.1661+24.6538+38.2807+19.6372+44.5898+19.6372C50.8989+19.6372+56.0135+24.6538+56.0135+30.8422C56.0135+37.0306+50.8989+42.0472+44.5898+42.0472C38.2807+42.0472+33.1661+37.0306+33.1661+30.8422Z" stroke-linecap="round" stroke="#68989a"/>
<path stroke-width="1.03" stroke-linecap="round" stroke-dasharray="2.0" stroke="#cdc5c5" d="M68.749+58.4799L44.9449+31.6161" opacity="1" fill="none" stroke-linejoin="round"/>
</g>
<g opacity="1">
<g opacity="1">
<path fill="url(#RadialGradient_5)" d="M80.047+95.865C80.047+93.3532+82.1229+91.3169+84.6838+91.3169C87.2446+91.3169+89.3206+93.3532+89.3206+95.865C89.3206+98.3768+87.2446+100.413+84.6838+100.413C82.1229+100.413+80.047+98.3768+80.047+95.865Z" opacity="1"/>
<path stroke="#79e87e" stroke-linecap="round" stroke-width="1.03243" opacity="1" stroke-linejoin="round" fill="none" d="M78.6831+96.003C78.6831+92.7264+81.3911+90.0703+84.7316+90.0703C88.072+90.0703+90.78+92.7264+90.78+96.003C90.78+99.2795+88.072+101.936+84.7316+101.936C81.3911+101.936+78.6831+99.2795+78.6831+96.003Z"/>
</g>
<path opacity="1" stroke="#cdc5c5" fill="none" stroke-width="1.03" stroke-linejoin="round" stroke-linecap="round" d="M68.8874+58.6977L84.6364+95.9254"/>
</g>
</g>
</g>
</g>
</svg>
